<svg width="19" height="19" viewBox="0 0 19 19" fill="none" xmlns="http://www.w3.org/2000/svg">
<g clip-path="url(#clip0_1_1119)">
<path d="M14.5382 3.66891C15.8463 4.97685 16.5944 6.74225 16.6244 8.59182C16.6544 10.4414 15.9639 12.2301 14.6989 13.5798L14.5382 13.746L11.1792 17.1043C10.753 17.5302 10.1808 17.7782 9.57854 17.7981C8.9763 17.8179 8.38904 17.6081 7.93571 17.2112L7.82171 17.1043L4.46188 13.7452C3.12567 12.409 2.375 10.5968 2.375 8.70708C2.375 6.8174 3.12567 5.00511 4.46188 3.66891C5.79808 2.3327 7.61036 1.58203 9.50004 1.58203C11.3897 1.58203 13.202 2.3327 14.5382 3.66891ZM9.50004 6.33208C9.18815 6.33208 8.87932 6.39351 8.59117 6.51286C8.30302 6.63222 8.0412 6.80716 7.82066 7.0277C7.60013 7.24824 7.42518 7.51005 7.30583 7.7982C7.18647 8.08635 7.12504 8.39519 7.12504 8.70708C7.12504 9.01896 7.18647 9.3278 7.30583 9.61595C7.42518 9.9041 7.60013 10.1659 7.82066 10.3865C8.0412 10.607 8.30302 10.7819 8.59117 10.9013C8.87932 11.0206 9.18815 11.0821 9.50004 11.0821C10.1299 11.0821 10.734 10.8319 11.1794 10.3865C11.6248 9.94106 11.875 9.33696 11.875 8.70708C11.875 8.07719 11.6248 7.4731 11.1794 7.0277C10.734 6.5823 10.1299 6.33208 9.50004 6.33208Z" fill="#71717A"/>
</g>
<defs>
<clipPath id="clip0_1_1119">
<rect width="19" height="19" fill="white"/>
</clipPath>
</defs>
</svg>
