<svg width="17" height="13" viewBox="0 0 17 13" fill="none" xmlns="http://www.w3.org/2000/svg">
<path d="M14.0423 0.957031C14.6722 0.957031 15.2763 1.20725 15.7217 1.65265C16.1671 2.09805 16.4173 2.70214 16.4173 3.33203V9.66536C16.4173 10.2953 16.1671 10.8993 15.7217 11.3447C15.2763 11.7901 14.6722 12.0404 14.0423 12.0404H2.95898C2.3291 12.0404 1.725 11.7901 1.27961 11.3447C0.834207 10.8993 0.583984 10.2953 0.583984 9.66536V3.33203C0.583984 2.70214 0.834207 2.09805 1.27961 1.65265C1.725 1.20725 2.3291 0.957031 2.95898 0.957031H14.0423ZM8.50065 4.1237C7.89135 4.12375 7.30538 4.35797 6.86392 4.77791C6.42246 5.19786 6.15928 5.77141 6.12882 6.37995L6.12565 6.4987C6.12565 6.96843 6.26494 7.42761 6.52591 7.81818C6.78688 8.20874 7.1578 8.51315 7.59178 8.69291C8.02575 8.87267 8.50329 8.9197 8.96399 8.82806C9.4247 8.73642 9.84788 8.51023 10.18 8.17808C10.5122 7.84593 10.7384 7.42274 10.83 6.96204C10.9217 6.50133 10.8746 6.0238 10.6949 5.58982C10.5151 5.15585 10.2107 4.78493 9.82013 4.52396C9.42956 4.26299 8.97038 4.1237 8.50065 4.1237ZM13.2586 5.70703H13.2507C13.0407 5.70703 12.8393 5.79044 12.6909 5.9389C12.5424 6.08737 12.459 6.28873 12.459 6.4987C12.459 6.70866 12.5424 6.91002 12.6909 7.05849C12.8393 7.20696 13.0407 7.29036 13.2507 7.29036H13.2586C13.4685 7.29036 13.6699 7.20696 13.8184 7.05849C13.9668 6.91002 14.0502 6.70866 14.0502 6.4987C14.0502 6.28873 13.9668 6.08737 13.8184 5.9389C13.6699 5.79044 13.4685 5.70703 13.2586 5.70703ZM3.75857 5.70703H3.75065C3.64669 5.70755 3.54384 5.72854 3.44799 5.76881C3.35214 5.80907 3.26516 5.86782 3.19202 5.9417C3.11887 6.01558 3.06099 6.10315 3.02169 6.1994C2.98238 6.29565 2.96242 6.39869 2.96294 6.50266C2.96346 6.60662 2.98445 6.70946 3.02472 6.80531C3.06498 6.90116 3.12373 6.98814 3.19762 7.06129C3.2715 7.13443 3.35906 7.19231 3.45531 7.23162C3.55156 7.27092 3.6546 7.29088 3.75857 7.29036C3.96853 7.29036 4.16989 7.20696 4.31836 7.05849C4.46683 6.91002 4.55023 6.70866 4.55023 6.4987C4.55023 6.28873 4.46683 6.08737 4.31836 5.9389C4.16989 5.79044 3.96853 5.70703 3.75857 5.70703Z" fill="#71717A"/>
</svg>
